<svg width="44" height="40" viewBox="0 0 44 40" fill="none" xmlns="http://www.w3.org/2000/svg">
<path fill-rule="evenodd" clip-rule="evenodd" d="M12.4109 40C5.55595 40 0 34.5339 0 27.7898C0 23.112 2.67561 19.0489 6.60078 17C7.29262 19.417 8.60572 21.5806 10.36 23.3065C11.9979 24.9179 14.024 26.1542 16.2866 26.8626C16.2654 27.1751 16.2549 27.4912 16.2549 27.8107C16.2584 31.5126 17.6738 34.8916 20 37.451C17.9033 39.0485 15.27 40 12.4109 40Z" fill="url(#paint0_linear_1219_1630)"/>
<path fill-rule="evenodd" clip-rule="evenodd" d="M31.5 40C24.5958 40 19 34.4672 19 27.6487C19 27.5047 19.0036 27.3607 19.0071 27.2166C19.7288 27.322 20.4683 27.3782 21.222 27.3782C25.3104 27.3782 29.0149 25.7412 31.6955 23.0925C33.6331 21.178 35.0374 18.733 35.6667 16C40.523 17.6967 44 22.2705 44 27.6487C44 34.4707 38.4042 40 31.5 40Z" fill="url(#paint1_linear_1219_1630)"/>
<path fill-rule="evenodd" clip-rule="evenodd" d="M34 12.5C34 19.4042 28.4042 25 21.5 25C14.5958 25 9 19.4042 9 12.5C9 5.59585 14.5958 0 21.5 0C28.4042 0 34 5.59585 34 12.5Z" fill="url(#paint2_linear_1219_1630)"/>
<defs>
<linearGradient id="paint0_linear_1219_1630" x1="5" y1="19.5" x2="12.3634" y2="42.8321" gradientUnits="userSpaceOnUse">
<stop stop-color="#DEFF58"/>
<stop offset="1" stop-color="#FF722F"/>
</linearGradient>
<linearGradient id="paint1_linear_1219_1630" x1="30.9221" y1="7.38692" x2="10.6382" y2="29.4341" gradientUnits="userSpaceOnUse">
<stop stop-color="#00FEA3"/>
<stop offset="0.5625" stop-color="#00B2EA"/>
<stop offset="1" stop-color="#0073C7"/>
</linearGradient>
<linearGradient id="paint2_linear_1219_1630" x1="27" y1="1" x2="17.5" y2="25" gradientUnits="userSpaceOnUse">
<stop stop-color="#FFD4CB"/>
<stop offset="0.494792" stop-color="#FF4E43"/>
<stop offset="1" stop-color="#C0281F"/>
</linearGradient>
</defs>
</svg>
